<?xml version="1.0" encoding="iso-8859-1"?>
<!-- Generator: Adobe Illustrator 19.0.0, SVG Export Plug-In . SVG Version: 6.00 Build 0)  -->
<svg version="1.1" id="Layer_1" xmlns="http://www.w3.org/2000/svg" xmlns:xlink="http://www.w3.org/1999/xlink" x="0px" y="0px"
	 viewBox="0 0 411.909 411.909" style="enable-background:new 0 0 411.909 411.909;" xml:space="preserve">
<g id="XMLID_1_">
	<path id="XMLID_2086_" style="fill:#FFD422;" d="M190.421,18.888c2.918-5.912,8.939-9.656,15.533-9.656s12.615,3.743,15.533,9.656
		l54.26,109.943l121.33,17.63c6.525,0.948,11.945,5.518,13.983,11.789c2.037,6.271,0.338,13.154-4.383,17.756l-87.795,85.579
		l20.726,120.839c1.115,6.498-1.557,13.066-6.891,16.941c-5.334,3.875-12.406,4.387-18.242,1.318L205.955,343.63L97.433,400.685
		c-5.836,3.068-12.908,2.557-18.242-1.318c-5.334-3.875-8.005-10.443-6.891-16.941l20.726-120.84L5.231,176.007
		c-4.721-4.602-6.421-11.486-4.383-17.756c2.037-6.271,7.458-10.841,13.983-11.789l121.33-17.63L190.421,18.888z"/>
	<path id="XMLID_868_" style="fill:#EEBF00;" d="M411.059,158.251c-2.037-6.271-7.458-10.841-13.983-11.789l-121.33-17.63
		l-54.26-109.943c-2.918-5.912-8.939-9.656-15.533-9.656c-1.155,0,0,334.4,0,334.4l108.521,57.053
		c5.836,3.068,12.908,2.557,18.242-1.318c5.334-3.876,8.005-10.443,6.891-16.941l-20.726-120.84l87.795-85.579
		C411.398,171.405,413.097,164.521,411.059,158.251z"/>
</g>
<g>
</g>
<g>
</g>
<g>
</g>
<g>
</g>
<g>
</g>
<g>
</g>
<g>
</g>
<g>
</g>
<g>
</g>
<g>
</g>
<g>
</g>
<g>
</g>
<g>
</g>
<g>
</g>
<g>
</g>
</svg>
